<svg display="none" version="1.1" xmlns="http://www.w3.org/2000/svg">
  <symbol id="php" viewBox="0 0 22 11">
    <path d="M-1.36839722e-16,10.4741412 L1.80287602,10.4741412 L2.23051588,8.27377644 L3.77480206,8.27377644 C4.45620571,8.27377644 5.01671508,8.20234276 5.45679014,8.0590207 C5.89685992,7.9160423 6.29679021,7.67596146 6.65673964,7.33900553 C6.95888546,7.06139174 7.20328055,6.75504269 7.39049591,6.42007999 C7.57748393,6.0853975 7.71035873,5.71584675 7.78888767,5.31171851 C7.97962422,4.33061167 7.83567829,3.56647586 7.3574464,3.01908372 C6.87921451,2.47163343 6.1184307,2.19793737 5.07548622,2.19793737 L1.6085654,2.19793737 L-8.8817842e-16,10.4741412 L-1.36839722e-16,10.4741412 Z M4.3927185,3.50395618 C5.0777015,3.50395618 5.53418236,3.6303596 5.762399,3.88327217 C5.99044116,4.13613186 6.04478173,4.57018495 5.92547886,5.18526223 C5.80078317,5.82583908 5.56081336,6.28306013 5.20500901,6.55698354 C4.84920465,6.83090695 4.30777105,6.96775762 3.58088797,6.96775762 L2.48427967,6.96775762 L3.15745134,3.50395618 L4.3927185,3.50395618 Z M9.24901011,0 L11.0376967,0 L10.6100568,2.20036474 L12.2035762,2.20036474 C13.2061486,2.20036474 13.8977722,2.37537224 14.2783888,2.72492728 C14.6590107,3.07471494 14.7730318,3.64147364 14.6208539,4.42491785 L13.8724471,8.27620381 L12.0553689,8.27620381 L12.7669248,4.6143485 C12.8478963,4.19777978 12.8181988,3.91363645 12.6775468,3.76214057 C12.5369528,3.61063941 12.2377043,3.53477515 11.7800815,3.53477515 L10.3505565,3.53477515 L9.42913021,8.27620381 L7.64044894,8.27620381 L9.24901011,0 Z M14.1295974,10.4741412 L15.9324744,10.4741412 L16.3601143,8.27377644 L17.9043423,8.27377644 C18.585746,8.27377644 19.1462553,8.20234276 19.5863304,8.0590207 C20.0264002,7.9160423 20.4263305,7.67596146 20.786338,7.33900553 C21.0884257,7.06139174 21.332879,6.75504269 21.5200943,6.42007999 C21.7070823,6.0853975 21.8399571,5.71584675 21.9184279,5.31171851 C22.1092226,4.33061167 21.9652767,3.56647586 21.4870448,3.01908372 C21.0088129,2.47163343 20.2480291,2.19793737 19.2050265,2.19793737 L15.7381056,2.19793737 L14.1295974,10.4741412 Z M18.5223169,3.50395618 C19.2072418,3.50395618 19.6637226,3.6303596 19.8919921,3.88327217 C20.1200396,4.13613186 20.1743801,4.57018495 20.0550191,5.18526223 C19.9303816,5.82583908 19.6904118,6.28306013 19.3345493,6.55698354 C18.9788031,6.83090695 18.4373695,6.96775762 17.7105393,6.96775762 L16.6138781,6.96775762 L17.2870497,3.50395618 L18.5223169,3.50395618 Z" id="Shape"></path>
  </symbol>
  <symbol id="javascript" viewBox="0 0 20 20">
    <path d="M0,0 L20,0 L20,20 L0,20 L0,0 L0,0 Z M18.3625,15.23 C18.21625,14.3175 17.62125,13.55125 15.85875,12.83625 C15.24625,12.54875 14.565,12.34875 14.36125,11.88625 C14.28625,11.61125 14.27375,11.46125 14.32375,11.29875 C14.44875,10.76125 15.08625,10.59875 15.58625,10.74875 C15.91125,10.855 16.21125,11.10375 16.39875,11.50125 C17.26125,10.9425 17.26125,10.94625 17.86125,10.56375 C17.63625,10.22 17.52375,10.06375 17.37375,9.91625 C16.8525,9.335 16.14875,9.03625 15.01375,9.05875 L14.42625,9.13375 C13.86375,9.27625 13.32625,9.57375 13.0075,9.97125 C12.06,11.04625 12.3325,12.925 13.4825,13.69875 C14.62,14.54875 16.285,14.7425 16.4975,15.53875 C16.7025,16.51375 15.77875,16.82875 14.86,16.7175 C14.185,16.575 13.81,16.23 13.4,15.605 L11.88375,16.48 C12.065,16.88 12.25875,17.06125 12.56375,17.4075 C14.01375,18.87375 17.63875,18.80125 18.28875,16.57625 C18.31375,16.50125 18.48875,15.99125 18.35125,15.20625 L18.3625,15.23 Z M10.875,9.1925 L9.0025,9.1925 C9.0025,10.8075 8.995,12.4125 8.995,14.03 C8.995,15.0575 9.0475,16 8.88,16.28875 C8.605,16.86375 7.8975,16.78875 7.575,16.68875 C7.245,16.52625 7.0775,16.29875 6.88375,15.97375 C6.83125,15.88125 6.79125,15.80875 6.7775,15.8025 C6.27,16.115 5.765,16.425 5.25625,16.735 C5.51,17.255 5.88125,17.705 6.36,17.9975 C7.0725,18.4225 8.03,18.55625 9.0325,18.32625 C9.685,18.13875 10.2475,17.7425 10.54125,17.14375 C10.96625,16.36 10.87625,15.41 10.8725,14.35625 C10.8825,12.64375 10.8725,10.92875 10.8725,9.20625 L10.875,9.1925 Z" id="Shape"></path>
  </symbol>
  <symbol id="html" viewBox="0 0 18 20">
    <path d="M0,0 L17.5,0 L15.90875,17.96875 L8.73,20 L1.5925,17.96875 L0,0 L0,0 Z M5.85875,8.125 L5.665,5.86 L14.0475,5.8625 L14.24,3.6775 L3.26,3.675 L3.84125,10.35 L11.44625,10.35 L11.175,13.205 L8.75,13.875 L6.2875,13.2 L6.13125,11.4425 L3.95625,11.4425 L4.23125,14.9175 L8.75,16.125 L13.2325,14.9225 L13.8525,8.125 L5.85875,8.125 L5.85875,8.125 Z" id="Shape"></path>
  </symbol>
  <symbol id="css" viewBox="0 0 20 19">
    <path d="M2.97640653,0 L2.30490018,3.35753176 L15.9709619,3.35753176 L15.5444646,5.52631579 L1.86932849,5.52631579 L1.20689655,8.88384755 L14.8729583,8.88384755 L14.1107078,12.7132486 L8.60254083,14.5372051 L3.82940109,12.7132486 L4.15607985,11.0526316 L0.798548094,11.0526316 L0,15.0816697 L7.89473684,18.1034483 L16.9963702,15.0816697 L18.2032668,9.0199637 L18.4482759,7.80399274 L20,0 L2.97640653,0 Z" id="Shape"></path>
  </symbol>
  <symbol id="c" viewBox="0 0 24 24">
    <path d="M17.023 9.216s-.386-3.293-3.955-3.385c-3.57-.091-5.402 2.47-5.402 6.13 0 3.66 2.026 6.588 5.498 6.588 3.473 0 3.86-3.66 3.86-3.66l6.656.366s.391 3.306-2.394 5.828C18.5 23.605 15.082 24.017 12.694 24c-2.388-.018-5.698.034-8.9-2.969C.595 18.03.05 15.113.05 12.248c0-2.866.607-6.661 4.414-9.54C7.05.754 9.673.033 12.296.033 23.246.032 23.98 9.28 23.98 9.28z" id="Shape"/>
  </symbol>
  <symbol id="c++" viewBox="0 0 24 24">
    <path d="M22.393 6c-.167-.29-.398-.543-.652-.69L12.925.22c-.508-.293-1.339-.293-1.847 0L2.26 5.31c-.508.293-.923 1.013-.923 1.6v10.18c0 .294.104.62.271.91.167.29.398.543.652.689l8.816 5.091c.508.293 1.339.293 1.847 0l8.816-5.091c.254-.146.485-.399.652-.689s.271-.616.271-.91V6.91c.002-.294-.102-.62-.269-.91zM12 19.109c-3.92 0-7.109-3.189-7.109-7.109S8.08 4.891 12 4.891a7.133 7.133 0 0 1 6.156 3.552l-3.076 1.781A3.567 3.567 0 0 0 12 8.445c-1.96 0-3.554 1.595-3.554 3.555S10.04 15.555 12 15.555a3.57 3.57 0 0 0 3.08-1.778l3.077 1.78A7.135 7.135 0 0 1 12 19.109zm7.109-6.714h-.79v.79h-.79v-.79h-.79v-.79h.79v-.79h.79v.79h.79v.79zm2.962 0h-.79v.79h-.79v-.79h-.789v-.79h.789v-.79h.79v.79h.79v.79z" id="Shape"/>
  </symbol>
  <symbol id="python" viewBox="0 0 20 20">
    <path d="M 16.69,5.41 C 17.99,5.41 18.61,6.38 18.93,7.67 19.38,9.47 19.40,10.82 18.93,12.22 18.48,13.58 17.99,14.49 16.69,14.49 16.69,14.49 14.46,14.49 14.46,14.49 14.46,14.49 9.99,14.49 9.99,14.49 9.99,14.49 9.99,15.06 9.99,15.06 9.99,15.06 14.46,15.06 14.46,15.06 14.46,15.06 14.46,16.76 14.46,16.76 14.46,18.05 13.35,18.71 12.22,19.03 10.53,19.53 9.17,19.45 7.75,19.03 6.57,18.69 5.52,17.97 5.52,16.76 5.52,16.76 5.52,12.50 5.52,12.50 5.52,11.28 6.53,10.23 7.75,10.23 7.75,10.23 12.22,10.23 12.22,10.23 13.71,10.23 15.01,8.93 15.01,7.39 15.01,7.39 15.01,5.41 15.01,5.41 15.01,5.41 16.69,5.41 16.69,5.41 Z M 11.66,17.04 C 11.66,17.51 12.04,17.90 12.50,17.90 12.97,17.90 13.34,17.51 13.34,17.04 13.34,16.57 12.97,16.19 12.50,16.19 12.04,16.19 11.66,16.57 11.66,17.04 Z M 9.89,0.63 C 10.65,0.62 11.45,0.68 12.22,0.81 13.43,1.01 14.46,1.92 14.46,3.13 14.46,3.13 14.46,7.39 14.46,7.39 14.46,8.64 13.46,9.67 12.22,9.67 12.22,9.67 7.75,9.67 7.75,9.67 6.24,9.67 4.96,10.97 4.96,12.44 4.96,12.44 4.96,14.49 4.96,14.49 4.96,14.49 3.42,14.49 3.42,14.49 2.12,14.49 1.36,13.54 1.04,12.22 0.61,10.44 0.63,9.38 1.04,7.67 1.40,6.19 2.54,5.41 3.84,5.41 3.84,5.41 5.52,5.41 5.52,5.41 5.52,5.41 9.99,5.41 9.99,5.41 9.99,5.41 9.99,4.84 9.99,4.84 9.99,4.84 5.52,4.84 5.52,4.84 5.52,4.84 5.52,3.13 5.52,3.13 5.52,1.84 5.86,1.14 7.75,0.81 8.39,0.69 9.12,0.63 9.89,0.63 9.89,0.63 9.89,0.63 9.89,0.63 Z M 6.63,2.85 C 6.63,3.32 7.01,3.70 7.47,3.70 7.93,3.70 8.31,3.32 8.31,2.85 8.31,2.38 7.93,2.00 7.47,2.00 7.01,2.00 6.63,2.38 6.63,2.85 Z" id="Shape"></path>
  </symbol>
  <symbol id="liquid" viewBox="0 0 20 15">
    <path d="M13.5714286,0 L11.4285714,2.14285714 L16.4285714,7.14285714 L11.4285714,12.1428571 L13.5714286,14.2857143 L20,7.14285714 L13.5714286,0 L13.5714286,0 Z M6.42857143,0 L0,7.14285714 L6.42857143,14.2857143 L8.57142857,12.1428571 L3.57142857,7.14285714 L8.57142857,2.14285714 L6.42857143,0 L6.42857143,0 Z" id="Shape"></path>
  </symbol>
  <symbol id="star" viewBox="0 0 16 16">
    <path d="M14 6l-4.9-0.64L7 1 4.9 5.36 0 6l3.6 3.26L2.67 14l4.33-2.33 4.33 2.33L10.4 9.26 14 6z" />
  </symbol>
  <symbol id="fork" viewBox="0 0 10 16">
    <path d="M8 1c-1.11 0-2 0.89-2 2 0 0.73 0.41 1.38 1 1.72v1.28L5 8 3 6v-1.28c0.59-0.34 1-0.98 1-1.72 0-1.11-0.89-2-2-2S0 1.89 0 3c0 0.73 0.41 1.38 1 1.72v1.78l3 3v1.78c-0.59 0.34-1 0.98-1 1.72 0 1.11 0.89 2 2 2s2-0.89 2-2c0-0.73-0.41-1.38-1-1.72V9.5l3-3V4.72c0.59-0.34 1-0.98 1-1.72 0-1.11-0.89-2-2-2zM2 4.2c-0.66 0-1.2-0.55-1.2-1.2s0.55-1.2 1.2-1.2 1.2 0.55 1.2 1.2-0.55 1.2-1.2 1.2z m3 10c-0.66 0-1.2-0.55-1.2-1.2s0.55-1.2 1.2-1.2 1.2 0.55 1.2 1.2-0.55 1.2-1.2 1.2z m3-10c-0.66 0-1.2-0.55-1.2-1.2s0.55-1.2 1.2-1.2 1.2 0.55 1.2 1.2-0.55 1.2-1.2 1.2z" />
  </symbol>
  <symbol id="watch" viewBox="0 0 16 16">
    <path d="M8.06 2C3 2 0 8 0 8s3 6 8.06 6C13 14 16 8 16 8s-3-6-7.94-6zM8 12c-2.2 0-4-1.78-4-4 0-2.2 1.8-4 4-4 2.22 0 4 1.8 4 4 0 2.22-1.78 4-4 4zm2-4c0 1.11-.89 2-2 2-1.11 0-2-.89-2-2 0-1.11.89-2 2-2 1.11 0 2 .89 2 2z"></path>
  </symbol>
  <symbol id="down" viewBox="0 0 10 16">
    <path d="M7 7V3H3v4H0l5 6 5-6H7z" />
  </symbol>
  <symbol id="octocat" viewBox="0 0 16 16">
    <path d="M8 0C3.58 0 0 3.58 0 8c0 3.54 2.29 6.53 5.47 7.59 0.4 0.07 0.55-0.17 0.55-0.38 0-0.19-0.01-0.82-0.01-1.49-2.01 0.37-2.53-0.49-2.69-0.94-0.09-0.23-0.48-0.94-0.82-1.13-0.28-0.15-0.68-0.52-0.01-0.53 0.63-0.01 1.08 0.58 1.23 0.82 0.72 1.21 1.87 0.87 2.33 0.66 0.07-0.52 0.28-0.87 0.51-1.07-1.78-0.2-3.64-0.89-3.64-3.95 0-0.87 0.31-1.59 0.82-2.15-0.08-0.2-0.36-1.02 0.08-2.12 0 0 0.67-0.21 2.2 0.82 0.64-0.18 1.32-0.27 2-0.27 0.68 0 1.36 0.09 2 0.27 1.53-1.04 2.2-0.82 2.2-0.82 0.44 1.1 0.16 1.92 0.08 2.12 0.51 0.56 0.82 1.27 0.82 2.15 0 3.07-1.87 3.75-3.65 3.95 0.29 0.25 0.54 0.73 0.54 1.48 0 1.07-0.01 1.93-0.01 2.2 0 0.21 0.15 0.46 0.55 0.38C13.71 14.53 16 11.53 16 8 16 3.58 12.42 0 8 0z" />
  </symbol>
</svg>
