<?xml version="1.0" encoding="UTF-8" standalone="no"?>
<svg
   xmlns:dc="http://purl.org/dc/elements/1.1/"
   xmlns:cc="http://creativecommons.org/ns#"
   xmlns:rdf="http://www.w3.org/1999/02/22-rdf-syntax-ns#"
   xmlns:svg="http://www.w3.org/2000/svg"
   xmlns="http://www.w3.org/2000/svg"
   id="svg8"
   version="1.1"
   viewBox="0 0 24.995375 29.992655"
   height="29.992655mm"
   width="24.995375mm">
  <defs
     id="defs2" />
  <metadata
     id="metadata5">
    <rdf:RDF>
      <cc:Work
         rdf:about="">
        <dc:format>image/svg+xml</dc:format>
        <dc:type
           rdf:resource="http://purl.org/dc/dcmitype/StillImage" />
        <dc:title></dc:title>
      </cc:Work>
    </rdf:RDF>
  </metadata>
  <g
     transform="translate(-50.54171,-44.634626)"
     id="layer1">
    <g
       id="g823"
       transform="matrix(0.35277777,0,0,-0.35277777,-48.00507,164.166)">
      <g
         id="g825"
         transform="scale(1,-1)">
        <path
           d="m 314.77002,-338.8291 c -19.53857,0 -35.42481,19.06933 -35.42481,42.50781 0,23.44336 15.88624,42.51074 35.42481,42.51074 19.53516,0 35.42822,-19.06738 35.42822,-42.51074 0,-23.43848 -15.89306,-42.50781 -35.42822,-42.50781 z"
           style="fill:#6f0a19;fill-opacity:1;fill-rule:evenodd;stroke:none"
           id="path827" />
        <path
           d="m 342.2207,-283.70215 c -0.12304,0.39063 -0.42968,1 -0.97461,1.43945 0,0 -0.43945,-0.40039 -0.43945,-0.40039 0.48633,-0.3164 0.86719,-0.87793 0.9668,-1.19043 0.23242,-0.73242 0.0566,-1.37207 -0.57813,-1.58203 -0.3125,-0.10742 -0.60058,0.12207 -0.87695,0.38575 -0.44141,0.40527 -0.80273,0.9082 -1.32031,1.21093 -0.40039,0.24414 -0.85742,0.40235 -1.49219,0.19043 -0.86914,-0.29297 -1.15234,-1.34277 -0.83984,-2.33886 0.10742,-0.33204 0.29296,-0.72266 0.55957,-1.22559 0.40722,0.1123 0.70019,0.20996 0.93457,0.28809 0.12695,0.0439 0.24707,0.0976 0.18847,0.28808 -0.0391,0.12207 -0.1123,0.19531 -0.56933,0.13184 -0.19532,-0.0342 -0.47071,0.13183 -0.66114,0.72265 -0.19824,0.63477 -0.083,1.23047 0.5127,1.43067 0.41992,0.1416 1.04492,-0.61817 1.29394,-0.90137 0.28321,-0.31445 0.61231,-0.67383 1.01075,-0.87109 0.36133,-0.19043 0.81054,-0.24414 1.28125,-0.083 1.03711,0.34668 1.33593,1.45996 1.0039,2.50488 z m -6.26025,1.16602 c -0.0391,0.13672 0.1123,0.17578 0.21728,0.22461 0,0 4.57032,2.19726 4.57032,2.19726 0,0 -0.3418,0.95703 -0.3418,0.95703 0,0 -4.64844,-2.23632 -4.64844,-2.23632 -0.29541,-0.14063 -0.23437,-0.12696 -0.40771,0.13281 -0.0732,0.11719 -0.13916,0.2832 -0.28565,0.20898 -0.14404,-0.0684 -0.17334,-0.19531 -0.0855,-0.36523 0.11719,-0.21094 0.3003,-0.56641 0.38575,-0.74805 0.0806,-0.18555 0.20019,-0.49805 0.2832,-0.72656 0.0684,-0.18164 0.18555,-0.24024 0.32471,-0.17188 0.10986,0.0547 0.0781,0.20118 -0.0122,0.52735 z m 2.01416,4.89843 c 0.57422,0.36524 0.79883,0.98633 0.42969,1.60157 -0.14844,0.24804 -0.33887,0.47851 -0.52735,0.66797 -0.0557,0.0547 -0.0586,0.0586 -0.10937,0.0254 0,0 -1.99268,-1.28516 -1.99268,-1.28516 0,0 0.16114,-0.26758 0.16114,-0.26758 0.64209,-1.05469 1.36474,-1.17773 2.03857,-0.74219 z m -2.71484,-1.00195 c 0.47851,0.3086 0.80078,0.73828 0.34423,1.49414 0,0 -0.17822,0.29883 -0.17822,0.29883 0,0 -1.64307,-1.06445 -1.64307,-1.06445 -0.12695,-0.084 -0.17333,-0.10742 -0.10253,-0.22461 0,0 0.0781,-0.13672 0.0781,-0.13672 0.35156,-0.57617 0.92285,-0.74219 1.50147,-0.36719 z m 3.16406,0.0937 c -0.80078,-0.51758 -1.52539,-0.20117 -2.07715,0.38086 0.0459,-0.5957 -0.18604,-1.09375 -0.72314,-1.43555 -0.60547,-0.39062 -1.51612,-0.084 -2.02637,0.76172 -0.17334,0.28321 -0.30029,0.57617 -0.47608,0.86328 -0.11474,0.19141 -0.32226,0.49414 -0.43213,0.6211 -0.0854,0.0976 -0.18066,0.19531 -0.24414,0.30273 -0.083,0.13672 -0.0488,0.28321 0.0708,0.36133 0.10498,0.0625 0.15625,0.0391 0.32226,-0.21484 0.20264,-0.29883 0.25147,-0.25391 0.50049,-0.0937 0,0 0.19043,0.12304 0.19043,0.12304 0,0 4.16064,2.67969 4.16064,2.67969 0,0 0.35645,-0.6875 0.43946,-0.82422 0.17773,-0.27344 0.35644,-0.39062 0.53906,-0.69922 0.62305,-1.01953 0.625,-2.26562 -0.24414,-2.82617 z m -9.36524,6.5918 c -0.10742,0.20898 -0.0781,0.49805 -0.0391,0.67383 0,0 1.15479,5.30664 1.15479,5.30664 0,0 -0.52002,0.4541 -0.52002,0.4541 -1.9043,-1.32324 -3.1709,-2.04102 -4.72364,-3.16406 -0.11718,-0.083 -0.17578,-0.16114 -0.31494,-0.0733 -0.2539,0.16114 -0.33203,0.13672 -0.40039,0.0293 -0.0781,-0.12207 -0.0464,-0.25879 0.10987,-0.3418 0.22216,-0.1123 0.57373,-0.33593 0.75927,-0.44336 0.23438,-0.13281 0.40283,-0.0195 0.58838,0.10743 0,0 3.80322,2.66504 3.80322,2.66504 0,0 -1.00341,-4.46778 -1.00341,-4.46778 -0.0586,-0.28711 -0.59327,0.24024 -0.74463,0.006 -0.0781,-0.12695 -0.0195,-0.2207 0.13672,-0.32226 0.2832,-0.18555 0.76171,-0.6836 1.01806,-0.99219 0.12451,-0.14063 0.28076,-0.10156 0.36133,0.0195 0.0415,0.0742 -0.0488,0.26953 -0.18555,0.54297 z m -8.36865,5.02832 c -0.33203,0.16113 -0.354,0.26367 -0.23681,0.70801 0.13671,0.53222 1.28906,4.89257 1.28906,4.89257 0,0 -1.04492,0.27344 -1.04492,0.27344 0,0 -1.14014,-4.45801 -1.14014,-4.45801 0,0 -1.15479,4.44825 -1.15479,4.44825 0,0 -0.47607,0.16113 -0.47607,0.16113 0,0 -2.62695,-3.89649 -2.62695,-3.89649 0,0 0.30078,4.44825 0.30078,4.44825 0,0 -0.91797,0.26367 -0.91797,0.26367 0,0 -0.33203,-5.08301 -0.33203,-5.08301 -0.0371,-0.51758 -0.11231,-0.63476 -0.41992,-0.65918 -0.25391,-0.0244 -0.36622,-0.0928 -0.38575,-0.22949 -0.0322,-0.21484 0.15332,-0.24902 0.24414,-0.25391 0.24903,-0.005 0.90332,0.0244 1.11817,0.0146 0.18555,-0.01 0.2832,0.0195 0.42969,0.22949 0,0 2.70507,4.1211 2.70507,4.1211 0,0 1.22266,-4.70703 1.22266,-4.70703 0.0659,-0.2295 0.2124,-0.3418 0.38086,-0.39063 0.22217,-0.0537 0.76172,-0.25879 0.99365,-0.32226 0.0903,-0.0244 0.31494,-0.0391 0.34424,0.16113 0.0195,0.14648 -0.0781,0.17578 -0.29297,0.27832 z m -7.8291,1.09863 c -0.13672,0.0195 -0.25391,0.0879 -0.35449,0.23926 0,0 -3.30274,4.67773 -3.30274,4.67773 0,0 -0.67871,-0.0879 -0.67871,-0.0879 -0.34424,-2.34375 -0.5957,-3.79883 -0.84961,-5.74218 -0.0147,-0.14161 -0.005,-0.23926 -0.16113,-0.28809 -0.28809,-0.083 -0.31982,-0.16113 -0.29297,-0.2832 0.0342,-0.14161 0.15869,-0.20996 0.32227,-0.14649 0.22949,0.0928 0.62744,0.20508 0.83008,0.27832 0.24902,0.0879 0.28808,0.29297 0.31738,0.51758 0,0 0.58349,4.69727 0.58349,4.69727 0,0 2.60987,-3.75977 2.60987,-3.75977 0.16308,-0.23926 -0.57617,-0.2832 -0.50782,-0.56641 0.0361,-0.1416 0.14649,-0.16601 0.32227,-0.1123 0.22461,0.0781 1.12793,0.15137 1.37207,0.15137 0.18555,0.005 0.26856,0.0684 0.24414,0.23437 -0.0176,0.11719 -0.13183,0.15137 -0.4541,0.19043 z m -6.68213,-1.77734 c -0.12695,-0.0439 -0.16846,0.1123 -0.22217,0.21972 0,0 -2.24121,4.57032 -2.24121,4.57032 0,0 -0.91553,-0.38575 -0.91553,-0.38575 0,0 2.27784,-4.64355 2.27784,-4.64355 0.15136,-0.30273 0.13183,-0.24414 -0.10987,-0.4248 -0.10986,-0.083 -0.27099,-0.15625 -0.19531,-0.30274 0.0684,-0.14648 0.19531,-0.1709 0.35889,-0.0781 0.19775,0.12695 0.53955,0.33203 0.71289,0.41992 0.1709,0.0928 0.47363,0.22461 0.6958,0.31738 0.16601,0.0732 0.22217,0.19531 0.15381,0.3418 -0.0562,0.1123 -0.2002,0.0732 -0.51514,-0.0342 z m -4.21142,0.46386 c -0.90577,1.20118 -2.05079,1.68458 -3.27149,0.70313 -0.32226,-0.25879 -0.5542,-0.46875 -0.71289,-0.68848 -0.0977,-0.13183 -0.0854,-0.14648 0.0513,-0.33203 0,0 2.73193,-3.61719 2.73193,-3.61719 0.12207,-0.16601 0.19776,-0.16601 0.33448,-0.0488 0,0 0.59814,0.47851 0.59814,0.47851 1.53076,1.22461 1.06445,2.44043 0.26856,3.50488 z m 0.91796,0.57129 c 1.04493,-1.38671 0.67383,-3.15429 -0.74218,-4.28711 -0.34912,-0.27734 -0.5835,-0.45312 -0.78858,-0.60546 -0.16845,-0.1211 -0.33935,-0.24414 -0.50049,-0.375 -0.17089,-0.13672 -0.38574,-0.33204 -0.48584,-0.45508 -0.0879,-0.0918 -0.17334,-0.20508 -0.27099,-0.28321 -0.10987,-0.0879 -0.24903,-0.0918 -0.34424,0.0293 -0.10742,0.14258 0.0195,0.23438 0.16602,0.36719 0.26367,0.23437 0.21728,0.27734 0.0366,0.52148 0,0 -3.14209,4.16993 -3.14209,4.16993 0.46875,0.32226 0.75927,0.51269 1.14502,0.90332 0.17089,0.17578 0.31982,0.34179 0.43457,0.42968 1.61621,1.29883 3.37158,1.06934 4.49218,-0.41504 z m -3.71826,-6.44531 c -0.0903,-0.0918 -0.23437,-0.10742 -0.40283,-0.0586 0,0 -5.30029,1.49414 -5.30029,1.49414 0,0 -0.47119,-0.50195 -0.47119,-0.50195 1.14502,-2.05665 1.87744,-3.4043 2.854,-5.07813 0.0781,-0.12695 0.14404,-0.19531 0.0562,-0.33789 -0.17578,-0.24805 -0.15625,-0.32617 -0.0586,-0.4043 0.10986,-0.0937 0.24658,-0.0645 0.3418,0.0879 0.11962,0.22461 0.36132,0.56641 0.47851,0.75586 0.14649,0.23047 0.0488,0.41602 -0.0659,0.61133 0,0 -2.4414,4.0918 -2.4414,4.0918 0,0 4.3164,-1.25 4.3164,-1.25 0.27344,-0.084 -0.27343,-0.59571 -0.0513,-0.77149 0.10987,-0.084 0.21485,-0.0351 0.32227,0.1211 0.12695,0.21093 0.26367,0.42968 0.38086,0.59179 0.11963,0.15625 0.23437,0.27735 0.39306,0.46289 0.12452,0.14258 0.11719,0.2793 0.007,0.36719 -0.0684,0.0527 -0.13672,0.0293 -0.35889,-0.18164 z m -3.59375,-5.17969 c -0.0513,0.01 -0.10986,0 -0.30517,0.0195 0,0 -0.11719,-0.41016 -0.11719,-0.41016 0,0 -0.76172,-1.59766 -0.76172,-1.59766 0,0 -4.71436,2.38867 -4.71436,2.38867 0,0 -0.5249,-0.85937 -0.5249,-0.85937 0,0 4.80225,-2.44141 4.80225,-2.44141 -0.20752,-0.46875 -0.60791,-1.28906 -0.60791,-1.28906 -0.23194,-0.47461 -0.29297,-0.30273 -0.625,-0.20508 -0.15381,0.043 -0.3125,0.0625 -0.36865,-0.0488 -0.0781,-0.17187 -0.01,-0.24023 0.14648,-0.32226 0.18311,-0.0937 0.41748,-0.20508 0.65186,-0.3125 0.27587,-0.13184 0.36377,0 0.45166,0.21484 0.10742,0.24805 0.20263,0.46289 0.35156,0.81055 0.44922,1.03516 0.95703,2.06055 1.44287,3.07617 0.0903,0.18945 0.22705,0.35547 0.3418,0.52149 0.0317,0.0547 0.0684,0.0937 0.0879,0.13281 0.0195,0.0488 0.0708,0.20898 -0.0854,0.28711 -0.0806,0.0449 -0.0903,0.0391 -0.16602,0.0351 z m -8.38867,-5.32714 c -0.13428,-0.39063 -0.2417,-1.06934 -0.0684,-1.75782 0,0 0.5957,0.0488 0.5957,0.0488 -0.2124,0.55176 -0.18554,1.23731 -0.0854,1.54785 0.24415,0.73242 0.75928,1.12696 1.38672,0.90821 0.3125,-0.11329 0.40772,-0.46875 0.47608,-0.8545 0.11719,-0.59863 0.11474,-1.22558 0.34912,-1.78711 0.17578,-0.44433 0.45166,-0.85449 1.0791,-1.0791 0.8667,-0.30761 1.7041,0.35645 2.03613,1.34766 0.10743,0.33203 0.18555,0.76172 0.26612,1.32324 -0.39063,0.16309 -0.6836,0.26856 -0.91797,0.34863 -0.11963,0.0469 -0.25391,0.0811 -0.3125,-0.10937 -0.0391,-0.12207 -0.022,-0.22949 0.37842,-0.45899 0.16845,-0.0976 0.29541,-0.40039 0.10009,-0.98632 -0.20752,-0.63477 -0.64453,-1.03516 -1.24023,-0.8252 -0.4126,0.14649 -0.47119,1.14258 -0.50781,1.52344 -0.0415,0.42969 -0.0977,0.91797 -0.29541,1.32324 -0.18067,0.375 -0.50537,0.69336 -0.98145,0.86328 -1.02783,0.36719 -1.91406,-0.33594 -2.2583,-1.37597 z m 45.20654,9.33105 c 0.46387,0.41992 0.97168,1.07422 0.18311,1.99219 -0.0757,0.0879 -0.11719,0.13086 -0.17334,0.17969 0,0 -1.77979,-1.63477 -1.77979,-1.63477 -0.0684,-0.0586 -0.0952,-0.11328 0.002,-0.22461 0,0 0.19531,-0.22461 0.19531,-0.22461 0.59326,-0.68945 1.05957,-0.55664 1.57226,-0.0879 z m 4.32178,1.44922 c -0.0635,-0.0586 -0.13476,-0.0488 -0.18555,-0.0391 -0.18554,0.0391 -0.41064,0.0586 -0.59375,0.0351 -0.84961,-0.11328 -1.62353,-0.16601 -2.48046,-0.27343 0.16357,-0.51758 0.19287,-1.45118 -0.48096,-2.07032 -0.69092,-0.63086 -1.60156,-0.30859 -2.16797,0.35157 -0.24414,0.2832 -0.46631,0.5996 -0.71045,0.88867 -0.13916,0.16601 -0.45654,0.49804 -0.58594,0.60547 -0.0976,0.082 -0.2124,0.16015 -0.29297,0.25781 -0.0952,0.10742 -0.12939,0.23047 -0.01,0.3418 0.12695,0.11328 0.22217,0.0351 0.37109,-0.12696 0.24658,-0.2539 0.29297,-0.21484 0.51514,-0.01 0,0 3.77441,3.47265 3.77441,3.47265 0,0 0.57129,-0.83984 0.57129,-0.83984 0,0 -1.71875,-1.58203 -1.71875,-1.58203 0,0 0.0732,-0.0879 0.0732,-0.0879 0.10743,-0.12696 0.16114,-0.18555 0.2295,-0.3125 0,0 1.90673,0.20508 1.90673,0.20508 0.62745,0.0781 1.10352,0.23437 1.5918,-0.3379 0.125,-0.14062 0.25391,-0.41992 0.19336,-0.47851 z m -20.40771,2.62305 c -0.0361,0.16992 0.14941,0.33593 0.31543,0.16992 0.51269,-0.52149 1.12011,-1.56641 1.5205,-3.27149 1.26953,-5.30664 0.33203,-12.09863 0.33203,-12.11328 -0.38281,-2.8789 2.23633,-4.51953 4.40186,-5.57617 0.76416,-0.37109 1.41846,-0.91797 1.80908,-1.3916 0.40039,-0.46387 0.74463,-1.19141 0.97656,-1.96289 0.67383,-2.27246 1.97217,-4.88574 4.92872,-5.03223 0.0195,0 6.97509,-0.50976 12.09033,-2.67383 1.63476,-0.69336 2.57031,-1.5332 3.00781,-2.11914 0.13086,-0.1914 -0.0664,-0.33984 -0.23242,-0.27343 -4.79688,1.92968 -9.4336,2.87304 -14.48487,2.93066 0,0 -0.48583,0.0195 -0.48583,0.0195 -1.76026,0.042 -3.33008,0.78418 -4.4502,1.9502 -1.77002,1.8457 -1.31836,5.06152 -2.47314,6.33593 -1.16211,1.27442 -4.0918,1.43555 -5.84961,3.4375 -1.06153,1.21094 -1.65723,2.92481 -1.38868,4.62891 0.002,0.002 0.0684,0.53223 0.0684,0.54199 0.84473,4.86817 0.99805,9.43848 -0.0859,14.39942 z m 2.93701,-1.78321 c -0.0366,0.10352 0.0781,0.17188 0.16845,0.10352 0.46631,-0.33203 0.91553,-1.17774 1.54053,-2.4375 0.71289,-1.44531 2.11914,-5.99024 2.19238,-9.65723 0.0342,-1.4209 -0.0415,-2.83691 -0.20996,-4.23828 0,0 -0.0439,0 -0.0439,0 -1.11572,0.10254 -1.95557,1.01074 -1.96777,2.08496 0.0122,0.13672 0.022,0.2832 0.0317,0.42481 0.37842,4.55566 -0.21484,9.21386 -1.71142,13.71972 z m 3.33008,-3.47656 c -0.10743,0.2207 0,0.2793 0.16845,0.0879 0.76172,-0.84961 1.57959,-1.70312 2.13867,-2.72461 1.69922,-3.0957 2.44092,-6.46387 2.44092,-9.76465 0,-0.71289 -0.0391,-1.42578 -0.0976,-2.1289 -0.0415,-0.14942 -0.0391,-0.27637 -0.0122,-0.31739 0.0293,-0.0469 0.13184,-0.0439 0.29541,-0.0469 0.72266,-0.0605 1.44287,-0.15332 2.1582,-0.28027 3.32032,-0.58594 6.57959,-1.89454 9.3877,-4.08204 0.9248,-0.71972 1.63574,-1.65722 2.3584,-2.54394 0.16113,-0.2002 0.0879,-0.29297 -0.11719,-0.14844 -4.15039,2.91211 -8.81397,4.58692 -13.60401,4.85742 -0.52734,0.0176 -1.21533,0.27344 -1.75732,0.70118 -0.33691,0.26367 -0.59326,0.5957 -0.67139,0.96191 -0.20507,0.49512 -0.2832,1.04492 -0.22461,1.45996 0.58594,4.66797 -0.27099,9.45313 -2.46337,13.96875 z m 10.26318,-19.88184 c 3.67236,-0.72558 8.00342,-2.81738 9.33057,-3.76464 1.1582,-0.82422 1.92187,-1.40821 2.17773,-1.91602 0.0488,-0.10059 -0.0391,-0.20117 -0.13672,-0.14648 -4.26172,2.24804 -8.85693,3.57812 -13.50537,4.02343 -0.1416,0.0166 -0.28809,0.0293 -0.43213,0.0391 -1.07422,0.20898 -1.83838,1.17871 -1.73584,2.30664 1.44043,-0.0781 2.87598,-0.25879 4.30176,-0.542 z m -17.95801,-0.97363 c 0.55664,0 1.00586,0.22852 1.00586,0.41699 0,0.18848 -0.44922,0.41993 -1.00586,0.41993 -0.55176,0 -1.00098,-0.23145 -1.00098,-0.41993 0,-0.18847 0.44922,-0.41699 1.00098,-0.41699 z m -2.64648,-1.63672 c -1.7334,0 -1.62598,-0.42968 -1.66797,-0.56347 0,0 0.45703,-0.8877 1.67773,-0.8877 1.21289,0 1.54297,1.06836 1.54297,1.06836 0,0 -0.27344,0.38281 -1.55273,0.38281 z m 2.64648,4.88086 c -1.07226,0 -1.9414,-0.89355 -1.9414,-1.14746 0,-0.25391 3.88671,-0.25391 3.88671,0 0,0.25391 -0.87109,1.14746 -1.94531,1.14746 z m 2.58985,-4.88086 c -1.27637,0 -1.54493,-0.38281 -1.54493,-0.38281 0,0 0.32227,-1.06836 1.54297,-1.06836 1.21289,0 1.66944,0.8877 1.66944,0.8877 -0.0391,0.13379 0.0684,0.56347 -1.66748,0.56347 z m 2.87109,0.60157 c -0.0781,-0.8086 -0.18555,-2.27344 -0.21484,-3.04688 -2.23829,0 -4.60938,-1.71191 -5.27344,-2.77734 -0.66114,1.06543 -3.03711,2.77734 -5.27295,2.77734 -0.0317,0.77344 -0.13672,2.23828 -0.21729,3.04688 -0.15381,1.48144 0.37354,3.01953 1.35938,4.12792 0.50781,0.57129 1.14258,1.12793 1.84375,1.4502 0.0605,0.0244 0.12695,0.0488 0.19726,0.0781 0,0 0.33496,0.14648 0.33496,0.14648 0.19043,0.10254 0.29786,0.24414 0.4834,0.38281 0.51953,0.37403 1.25,0.34961 1.26953,0.34961 0.0244,0 0.75196,0.0244 1.27149,-0.34961 0.18359,-0.13867 0.29101,-0.28027 0.48633,-0.38281 0,0 0.33398,-0.14648 0.33398,-0.14648 0.0713,-0.0293 0.13477,-0.0537 0.19824,-0.0781 0.7002,-0.32227 1.33252,-0.87891 1.84278,-1.4502 0.98633,-1.10839 1.51367,-2.64648 1.35742,-4.12792 z m -9.74805,-10.41797 c -1.82373,1.11328 -2.3584,1.14257 -2.3584,1.14257 0,0 -0.0122,1.90235 2.71192,0.85938 0.95703,-0.36719 3.86719,-2.00684 3.37695,-2.68945 -0.82812,-1.14746 -2.25391,-0.21875 -3.73047,0.6875 z m 2.55078,2.48242 c -4.75537,2.73242 -6.42285,0.21094 -6.42285,0.21094 0,0 -1.80908,2.07617 1.18164,2.88281 3.15918,0.85058 5.29785,-1.0791 5.80762,-1.45117 0.94531,-0.69336 1.14062,-2.61914 -0.56641,-1.64258 z m 5.9668,-2.48242 c 1.82617,1.11328 2.43408,1.14257 2.43408,1.14257 0,0 -0.0635,1.90235 -2.78808,0.85938 -0.95655,-0.36719 -3.87159,-2.00684 -3.37647,-2.68945 0.82324,-1.14746 2.25391,-0.21875 3.73047,0.6875 z m -2.55078,2.48242 c 4.75537,2.73242 6.49609,0.21094 6.49609,0.21094 0,0 1.73828,2.07617 -1.25244,2.88281 -3.16162,0.85058 -5.30224,-1.0791 -5.81006,-1.45117 -0.94238,-0.69336 -1.14062,-2.61914 0.56641,-1.64258 z m 7.35547,3.5293 c -0.19287,0.26269 -1.10352,1.35351 -2.54151,1.51269 0.022,0.59082 0.0317,1.36035 0.0708,1.97949 2.3462,-0.32226 3.34961,-2.08398 2.47071,-3.49218 z m -2.4292,5.2041 c -0.0635,0.68847 -0.23926,1.37011 -0.52002,2.0166 1.60156,-0.29297 2.62695,-1.23242 2.20703,-3.23438 -0.14893,0.31934 -0.82031,1.05469 -1.68701,1.05469 0,0 0,0.16309 0,0.16309 z m -13.22705,-1.67285 c 0.0415,-0.62208 0.0513,-1.38868 0.0708,-1.98243 -1.43555,-0.15722 -2.35352,-1.25 -2.54151,-1.51367 -0.8789,1.40918 0.12207,3.17188 2.47071,3.4961 z m -0.0439,1.54882 c -0.86426,0 -1.60644,-0.73828 -1.75293,-1.05468 -0.42724,2.00195 0.66895,2.93652 2.27051,3.22949 -0.27588,-0.64356 -0.45166,-1.3252 -0.51758,-2.01465 0,0 0,-0.16016 0,-0.16016 z m 6.55762,-40.67578 c -18.81836,0 -34.12598,18.37012 -34.12598,40.94922 0,22.58008 15.30762,40.94824 34.12598,40.94824 18.81982,0 34.12451,-18.36816 34.12451,-40.94824 0,-22.5791 -15.30469,-40.94922 -34.12451,-40.94922 z m 0,80.68653 c -18.16406,0 -32.93945,-17.82715 -32.93945,-39.73731 0,-21.90723 14.77539,-39.73437 32.93945,-39.73437 18.16553,0 32.94092,17.82714 32.94092,39.73437 0,21.91016 -14.77539,39.73731 -32.94092,39.73731 z m 11.02978,-45.87989 c -0.0976,1.74121 1.9502,-1.24414 0.28321,-3.59961 -1.35987,-1.93554 -2.61231,-4.55566 -0.92774,-6.91113 0.0147,-0.0127 3.8545,-5.65723 5.27295,-10.91797 0.45655,-1.6875 0.36866,-2.9248 0.17578,-3.61914 -0.0635,-0.22461 -0.30273,-0.16504 -0.35156,0 -1.41846,4.87695 -3.49853,9.01563 -6.53515,12.91797 0,0 -0.27344,0.37988 -0.27588,0.37988 -1.04248,1.37598 -1.41358,3.04102 -1.18653,4.6211 0.43701,3.04394 3.68653,4.55859 3.54492,7.1289 z m 0.9419,-8.84863 c -0.49512,0.95117 -0.20215,2.13965 0.71289,2.74805 0.84473,-1.13672 1.57471,-2.34864 2.22168,-3.61328 1.6748,-3.26075 2.67334,-7.88477 2.7417,-9.49024 0.0659,-1.39453 0.0708,-2.34961 -0.16846,-2.85937 -0.0464,-0.10254 -0.17578,-0.0967 -0.19531,0.0117 -0.83984,4.66602 -2.59766,9.01172 -5.08301,12.84473 0,0 -0.22949,0.3584 -0.22949,0.3584 z m 1.98242,4.81738 c -0.61279,0.83399 -0.87646,2.78711 0.3125,3.25293 0.81543,0.32129 3.32276,0.0459 4.41651,-0.39062 0.20263,-0.0791 0.16357,-0.35742 0.002,-0.42285 -0.96924,-0.4043 -2.46582,-0.78321 -3.125,-0.9375 2.20459,-3.3086 3.6206,-7.28223 3.6206,-11.55567 0,-1.15527 -0.29541,-2.28613 -0.54931,-3.38867 -0.0562,-0.24805 -0.17579,-0.24805 -0.18555,-9.8e-4 -0.25391,4.99121 -1.78223,9.60254 -4.49219,13.44336 z m -24.05176,-6.47949 c 1.68946,2.35547 0.43213,4.97559 -0.92529,6.91113 -1.6626,2.35547 0.38086,5.34082 0.2832,3.59961 -0.13916,-2.57031 3.10547,-4.08496 3.54493,-7.1289 0.22705,-1.58008 -0.14649,-3.24512 -1.18897,-4.6211 0,0 -0.27588,-0.37988 -0.27588,-0.37988 -3.02978,-3.90234 -5.11474,-8.04102 -6.5332,-12.91797 -0.0488,-0.16504 -0.28565,-0.22461 -0.35156,0 -0.18799,0.69434 -0.27588,1.93164 0.17578,3.61914 1.42578,5.26074 5.26367,10.90528 5.27099,10.91797 z m -4.51904,0.79688 c 0.64697,1.26464 1.37695,2.47656 2.18994,3.63281 0.94727,-0.62793 1.24024,-1.81641 0.74951,-2.76758 -0.0806,-0.11914 -0.15625,-0.24023 -0.23437,-0.3584 -2.48047,-3.83301 -4.23828,-8.17871 -5.07813,-12.84473 -0.0195,-0.10839 -0.14892,-0.11425 -0.19775,-0.0117 -0.2417,0.50976 -0.23193,1.46484 -0.16602,2.85937 0.0684,1.60547 1.0669,6.22949 2.73682,9.49024 z m -0.6543,7.18457 c -0.65673,0.15429 -2.14843,0.5332 -3.125,0.9375 -0.15869,0.0654 -0.19531,0.34375 0.007,0.42285 1.09375,0.43652 3.60351,0.71191 4.4165,0.39062 1.18897,-0.46582 0.92774,-2.41894 0.31006,-3.25293 -2.70508,-3.84082 -4.23828,-8.45215 -4.48975,-13.44336 -0.01,-0.24707 -0.12695,-0.24707 -0.18554,9.8e-4 -0.25391,1.10254 -0.54932,2.2334 -0.54932,3.38867 0,4.27344 1.41602,8.24707 3.61572,11.55567 z m 13.94776,20.47558 c 0,-0.01 0.0635,-0.54004 0.0654,-0.54199 0.2666,-1.7041 -0.32422,-3.41797 -1.38867,-4.62891 -1.75538,-2.00195 -4.68506,-2.16308 -5.84717,-3.4375 -1.15479,-1.27441 -0.70313,-4.49023 -2.47803,-6.33593 -1.11572,-1.16602 -2.68799,-1.90821 -4.44824,-1.9502 0,0 -0.48584,-0.0195 -0.48584,-0.0195 -5.04883,-0.0576 -9.68506,-1.00098 -14.48487,-2.93066 -0.16601,-0.0664 -0.36621,0.082 -0.22949,0.27343 0.43701,0.58594 1.36719,1.42578 3.00537,2.11914 5.11475,2.16407 12.07032,2.67383 12.08985,2.67383 2.95898,0.14649 4.25537,2.75977 4.93164,5.03223 0.23193,0.77148 0.57617,1.49902 0.97656,1.96289 0.39063,0.47363 1.04492,1.02051 1.80908,1.3916 2.16553,1.05664 4.78223,2.69727 4.40137,5.57617 0,0.0147 -0.93945,6.80664 0.32519,12.11328 0.40723,1.70508 1.0127,2.75 1.52833,3.27149 0.16601,0.16601 0.35156,0 0.3125,-0.16992 -1.08204,-4.96094 -0.92774,-9.53125 -0.083,-14.39942 z m -4.56299,-1.10351 c 0.01,-0.14161 0.0195,-0.28809 0.0293,-0.42481 -0.0171,-1.07422 -0.84961,-1.98242 -1.96534,-2.08496 0,0 -0.0439,0 -0.0439,0 -0.16846,1.40137 -0.24414,2.81738 -0.20996,4.23828 0.0708,3.66699 1.47949,8.21192 2.19238,9.65723 0.62256,1.25976 1.07422,2.10547 1.53809,2.4375 0.0928,0.0684 0.20507,0 0.17089,-0.10352 -1.49902,-4.50586 -2.08984,-9.16406 -1.71142,-13.71972 z m -4.08203,-3.72559 c 0.0586,-0.41504 -0.0195,-0.96484 -0.22461,-1.45996 -0.0806,-0.36621 -0.33936,-0.69824 -0.67383,-0.96191 -0.53955,-0.42774 -1.22803,-0.6836 -1.75537,-0.70118 -4.79004,-0.2705 -9.45557,-1.94531 -13.60352,-4.85742 -0.20507,-0.14453 -0.2832,-0.0518 -0.11963,0.14844 0.72266,0.88672 1.43555,1.82422 2.36084,2.54394 2.80518,2.1875 6.0669,3.4961 9.38721,4.08204 0.71289,0.12695 1.43555,0.21972 2.15576,0.28027 0.16114,0.003 0.26856,0 0.29541,0.0469 0.0293,0.041 0.0317,0.16797 -0.01,0.31739 -0.061,0.70312 -0.0977,1.41601 -0.0977,2.1289 0,3.30078 0.74219,6.66895 2.44141,9.76465 0.55908,1.02149 1.37695,1.875 2.13867,2.72461 0.17334,0.19141 0.27588,0.13281 0.16846,-0.0879 -2.19239,-4.51562 -3.04932,-9.30078 -2.46338,-13.96875 z m -3.49854,-5.37109 c 0.1001,-1.12793 -0.66162,-2.09766 -1.73584,-2.30664 -0.14648,-0.01 -0.29297,-0.0225 -0.43213,-0.0391 -4.64843,-0.44531 -9.2456,-1.77539 -13.51074,-4.02343 -0.0976,-0.0547 -0.18555,0.0459 -0.13672,0.14648 0.26123,0.50781 1.02295,1.0918 2.18506,1.91602 1.32569,0.94726 5.6543,3.03906 9.3335,3.76464 1.41845,0.28321 2.854,0.46387 4.29687,0.542 z m 12.75879,-30.70606 c -1.09668,1.25195 -1.29199,4.54395 -1.41894,6.02442 -1.10059,-0.98536 -2.71192,-2.41797 -4.21094,-2.46094 -0.18311,-0.007 -0.41748,0.0322 -0.20264,0.26367 0.73242,0.78906 2.44873,2.625 3.26123,3.50586 0.38086,0.41602 0.80078,0.56152 1.19141,0.58887 0.21777,0.0117 0.35156,-0.002 0.46191,-0.0195 0.0752,-0.002 0.28809,-0.0801 0.33692,-0.1211 0.13672,-0.082 0.26855,-0.18457 0.3955,-0.31152 0.29004,-0.31641 0.49805,-0.71192 0.49512,-1.27051 -0.002,-1.23828 0.003,-4.66309 0.003,-5.99609 0.005,-0.33985 -0.19043,-0.3418 -0.3125,-0.20313 z m 1.38184,0.20313 c 0,1.333 0.01,4.75781 0,5.99609 0,0.55859 0.20703,0.9541 0.4707,1.24121 0.15625,0.15625 0.29102,0.25879 0.42285,0.34082 0.0488,0.041 0.26074,0.11914 0.33692,0.1211 0.10742,0.0176 0.24609,0.0312 0.4248,0.0225 0.42676,-0.0303 0.84668,-0.17578 1.22754,-0.5918 0.81055,-0.88086 2.5293,-2.7168 3.26172,-3.50586 0.21484,-0.23145 -0.0122,-0.27051 -0.19775,-0.26367 -1.50391,0.043 -3.11524,1.47558 -4.2085,2.46094 -0.13672,-1.48047 -0.36133,-4.77247 -1.45508,-6.02442 -0.12695,-0.13867 -0.2832,-0.13672 -0.2832,0.20313 z"
           style="fill:#ffffff;fill-opacity:1;fill-rule:evenodd;stroke:none"
           id="path863" />
      </g>
    </g>
  </g>
</svg>
