<svg xmlns="http://www.w3.org/2000/svg" viewBox="0 0 24.995 29.993"><g fill-rule="evenodd"><path fill="#6f0a19" d="M12.497 0C5.604 0 0 6.727 0 14.996c0 8.27 5.604 14.997 12.497 14.997 6.892 0 12.498-6.727 12.498-14.997C24.995 6.727 19.39 0 12.497 0z"/><path fill="#fff" d="M22.181 19.448a1.11 1.11 0 01-.344.507l-.155-.14a.936.936 0 00.341-.42c.082-.26.02-.485-.204-.559-.11-.038-.212.043-.309.136-.156.143-.283.32-.466.427a.58.58 0 01-.526.068c-.307-.104-.407-.474-.296-.826.037-.117.103-.255.197-.432.144.04.247.074.33.102.044.015.087.034.066.101-.014.043-.04.07-.2.047-.07-.012-.167.046-.234.255-.07.224-.03.434.18.504.149.05.37-.218.457-.318.1-.11.216-.237.357-.307a.564.564 0 01.452-.03c.366.123.471.516.354.885zm-2.208.41c-.014.05.04.063.076.08l1.613.775-.121.338-1.64-.789c-.104-.05-.083-.045-.144.047-.026.041-.049.1-.1.074-.051-.025-.062-.07-.03-.13.04-.074.105-.2.135-.263.029-.066.071-.176.1-.256.024-.065.066-.085.115-.061.039.02.027.07-.004.186zm.71 1.729c.203.129.282.348.152.565-.053.087-.12.169-.186.236-.02.019-.021.02-.039.009l-.703-.454.057-.094c.227-.372.481-.416.72-.262zm-.958-.354c.17.11.283.26.122.528l-.063.105-.58-.375c-.044-.03-.06-.038-.036-.08l.028-.048c.124-.203.325-.262.53-.13zm1.117.034c-.283-.183-.538-.071-.733.134a.52.52 0 00-.255-.507c-.214-.137-.535-.03-.715.27-.061.1-.106.202-.168.304-.04.067-.114.174-.153.219-.03.034-.063.069-.086.107-.029.048-.017.1.025.127.037.022.055.014.114-.076.072-.105.089-.09.177-.033l.067.044 1.468.945s.125-.243.155-.29c.062-.097.125-.139.19-.247.22-.36.22-.8-.086-.997zm-3.304 2.325c-.038.074-.028.176-.014.238l.407 1.872-.183.16c-.672-.467-1.119-.72-1.666-1.116-.042-.03-.062-.057-.112-.026-.09.057-.117.048-.14.01-.028-.043-.017-.091.038-.12.078-.04.202-.119.268-.157.082-.047.142-.007.207.038l1.342.94-.354-1.576c-.02-.101-.21.085-.263.002-.027-.044-.007-.078.049-.113.1-.066.268-.242.359-.35.044-.05.099-.036.127.006.015.027-.017.096-.065.192zm-2.952 1.774c-.118.057-.125.093-.084.25.048.187.455 1.726.455 1.726l-.369.096-.402-1.573-.408 1.57-.167.056-.927-1.374.106 1.57-.324.092-.117-1.793c-.013-.183-.04-.224-.148-.233-.09-.008-.13-.032-.136-.08-.012-.076.054-.088.086-.09.088-.002.319.009.394.005.066-.003.1.007.152.081l.954 1.454.432-1.66a.188.188 0 01.134-.138c.078-.02.269-.092.35-.114.032-.009.112-.014.122.057.007.051-.028.062-.103.098zm-2.762.387a.174.174 0 00-.125.085l-1.166 1.65-.24-.031c-.12-.827-.21-1.34-.299-2.026-.005-.05-.002-.084-.057-.101-.101-.03-.112-.057-.103-.1.012-.05.056-.074.114-.052.08.033.221.072.293.098.087.031.101.104.112.183l.205 1.657.921-1.326c.058-.085-.203-.1-.18-.2.014-.05.053-.059.115-.04.079.028.398.054.484.054.065.001.094.024.086.082-.006.042-.047.054-.16.067zm-2.358-.627c-.045-.015-.06.04-.078.078l-.79 1.612-.324-.136.804-1.638c.053-.107.046-.086-.039-.15-.039-.03-.096-.055-.069-.107.024-.051.07-.06.127-.027.07.045.19.117.251.148.06.033.167.08.246.112.058.026.078.069.054.12-.02.04-.07.026-.182-.012zm-1.485.164c-.32.424-.724.594-1.155.248a1.34 1.34 0 01-.251-.243c-.034-.046-.03-.051.018-.117l.964-1.276c.043-.059.07-.059.118-.017l.21.169c.54.432.376.86.096 1.236zm.323.202c.369-.49.238-1.113-.261-1.513a9.962 9.962 0 00-.279-.213 3.773 3.773 0 01-.176-.133 1.353 1.353 0 01-.172-.16c-.03-.033-.06-.073-.095-.1-.039-.031-.088-.032-.122.01-.038.05.007.083.059.13.093.082.077.098.013.184l-1.109 1.47c.166.114.268.182.404.32.06.061.113.12.154.151.57.458 1.19.377 1.584-.146zm-1.311-2.274c-.032-.033-.083-.038-.142-.02l-1.87.526-.166-.177c.403-.725.662-1.2 1.006-1.791.028-.045.051-.07.02-.12-.062-.087-.055-.115-.02-.142.038-.033.086-.023.12.03.042.08.128.2.169.268.052.08.017.146-.023.215l-.862 1.444 1.523-.441c.097-.03-.096-.21-.018-.272.039-.03.076-.013.114.042.044.075.093.152.134.21.042.054.083.097.139.162.044.05.041.099.002.13-.024.019-.048.01-.126-.064zM5.725 21.39c-.018.003-.039 0-.108.006l-.041-.144-.269-.564-1.663.843-.185-.303 1.694-.862c-.073-.165-.214-.454-.214-.454-.082-.168-.104-.107-.22-.073-.055.015-.111.022-.131-.017-.028-.06-.004-.085.052-.114.064-.033.147-.072.23-.11.097-.046.128 0 .159.076l.124.286c.158.365.338.727.509 1.085.032.067.08.125.12.184.012.02.025.033.032.047.006.017.025.074-.03.101-.029.016-.032.014-.06.013zm-2.96-1.88a1.146 1.146 0 01-.024-.62l.21.017a.951.951 0 00-.03.546c.087.259.268.398.49.32.11-.04.143-.165.168-.3.04-.212.04-.433.123-.631a.605.605 0 01.38-.38c.306-.11.602.125.719.475.038.117.065.268.094.466a5.032 5.032 0 01-.324.123c-.042.017-.09.03-.11-.038-.014-.043-.008-.081.133-.162.06-.034.104-.141.035-.348-.073-.224-.227-.365-.437-.291-.146.052-.166.403-.18.537-.014.152-.034.324-.104.467a.597.597 0 01-.346.305c-.362.13-.675-.119-.796-.486zm15.948 3.292c.164.148.343.379.065.703a.554.554 0 01-.061.063l-.628-.576c-.024-.021-.034-.04 0-.08l.07-.079c.209-.243.373-.196.554-.03zm1.525.511c-.022-.02-.047-.017-.065-.013a.671.671 0 01-.21.012c-.3-.04-.573-.059-.875-.097.058-.182.068-.511-.17-.73-.243-.222-.565-.109-.764.124-.087.1-.165.212-.251.314-.05.058-.161.175-.207.213-.034.03-.075.057-.103.091-.034.038-.046.081-.004.12.045.04.079.013.131-.044.087-.09.104-.076.182-.004l1.332 1.225.201-.296-.606-.558.026-.03c.037-.046.056-.066.08-.111l.673.072c.222.028.39.083.562-.119.044-.05.09-.148.068-.169zm-7.2.926c-.012.06.053.118.112.06.18-.184.395-.553.536-1.154.448-1.873.117-4.269.117-4.274-.135-1.015.79-1.594 1.553-1.967.27-.13.5-.324.639-.49.14-.165.262-.421.344-.693.238-.802.696-1.724 1.739-1.776.007 0 2.46-.18 4.265-.943.577-.244.907-.54 1.061-.747.046-.068-.023-.12-.082-.097-1.692.68-3.328 1.014-5.11 1.034l-.171.007a2.242 2.242 0 00-1.57.688c-.625.651-.465 1.785-.873 2.235-.41.45-1.443.506-2.063 1.213a2.033 2.033 0 00-.49 1.633l.024.19c.298 1.718.352 3.33-.03 5.08zm1.037-.63c-.013.037.027.061.06.037.164-.117.322-.415.543-.86.251-.51.747-2.113.773-3.407.012-.5-.015-1-.074-1.495h-.015a.755.755 0 00-.695.736c.005.048.008.1.012.15a12.164 12.164 0 01-.604 4.84zm1.175-1.226c-.038.078 0 .099.059.031.269-.3.557-.6.754-.961.6-1.092.862-2.28.862-3.445 0-.251-.014-.503-.035-.75-.015-.054-.014-.098-.004-.113.01-.016.046-.015.104-.016.255-.022.509-.054.761-.1 1.172-.206 2.322-.668 3.312-1.44.326-.253.577-.584.832-.897.057-.07.031-.103-.041-.052-1.464 1.027-3.11 1.618-4.8 1.714a1.141 1.141 0 00-.62.247.614.614 0 00-.236.34c-.073.174-.1.368-.08.514.207 1.647-.095 3.335-.868 4.928zm3.62-7.014c1.296-.256 2.824-.994 3.292-1.328.408-.29.678-.497.768-.676.017-.035-.014-.07-.048-.051a12.825 12.825 0 01-4.917 1.433.755.755 0 00-.612.813 10.78 10.78 0 001.517-.19zm-6.335-.343c.196 0 .355.08.355.147 0 .066-.159.148-.355.148-.195 0-.353-.082-.353-.148 0-.067.158-.147.353-.147zm-.934-.578c-.611 0-.573-.151-.588-.198 0 0 .161-.314.592-.314.428 0 .544.377.544.377s-.096.135-.548.135zm.934 1.722c-.378 0-.685-.315-.685-.405 0-.09 1.371-.09 1.371 0s-.307.405-.686.405zm.914-1.722c-.45 0-.545-.135-.545-.135s.113-.377.544-.377c.428 0 .589.314.589.314-.014.047.024.198-.588.198zm1.012.213a23.74 23.74 0 01-.075-1.075c-.79 0-1.626-.604-1.86-.98-.234.376-1.072.98-1.86.98-.012.273-.05.79-.077 1.075a1.932 1.932 0 00.48 1.456c.178.201.402.398.65.511.02.01.044.018.07.028l.117.052c.067.036.105.086.17.135.184.132.442.123.449.123.008 0 .265.009.448-.123.065-.05.103-.1.172-.135l.118-.052.07-.028c.247-.113.47-.31.65-.511.348-.391.534-.934.478-1.456zm-3.438-3.676c-.644.393-.832.403-.832.403s-.005.672.956.304c.338-.13 1.365-.708 1.192-.95-.293-.404-.796-.076-1.316.243zm.9.876c-1.678.964-2.266.075-2.266.075s-.639.732.416 1.017c1.115.3 1.87-.381 2.05-.512.333-.245.402-.924-.2-.58zm2.104-.876c.645.393.86.403.86.403s-.023.672-.984.304c-.338-.13-1.366-.708-1.192-.95.29-.404.795-.076 1.316.243zm-.9.876c1.678.964 2.292.075 2.292.075s.613.732-.442 1.017c-1.115.3-1.87-.381-2.05-.512-.332-.245-.402-.924.2-.58zm2.595 1.245c-.068.093-.389.478-.896.534.008.208.011.48.025.698.827-.114 1.181-.735.871-1.232zm-.857 1.836a2.324 2.324 0 01-.183.711c.565-.103.927-.434.779-1.14-.053.112-.29.372-.596.372v.057zm-4.666-.59c.015-.22.018-.49.025-.7-.506-.055-.83-.44-.896-.533-.31.497.043 1.119.871 1.233zm-.015.546c-.305 0-.567-.26-.619-.372-.15.707.236 1.036.801 1.14a2.383 2.383 0 01-.182-.711v-.057zM12.497.55C5.858.55.458 7.03.458 14.997c0 7.966 5.4 14.445 12.04 14.445 6.638 0 12.037-6.48 12.037-14.445C24.535 7.03 19.136.55 12.497.55zm0 28.465c-6.408 0-11.62-6.289-11.62-14.018C.877 7.267 6.089.978 12.497.978c6.408 0 11.62 6.29 11.62 14.018 0 7.73-5.212 14.018-11.62 14.018zm3.891-16.185c-.034.614.688-.44.1-1.27-.48-.683-.921-1.607-.327-2.438.005-.005 1.36-1.996 1.86-3.852.161-.595.13-1.032.062-1.276-.022-.08-.107-.059-.124 0-.5 1.72-1.234 3.18-2.305 4.557l-.098.134a2.175 2.175 0 00-.418 1.63c.154 1.074 1.3 1.608 1.25 2.515zm.332-3.122a.75.75 0 00.252.97 9 9 0 00.784-1.275c.59-1.15.943-2.782.967-3.348.023-.492.025-.829-.06-1.009-.016-.036-.062-.034-.068.004A12.339 12.339 0 0116.8 9.581l-.08.126zm.7 1.7c-.216.294-.31.983.11 1.147.288.114 1.172.016 1.558-.138.072-.027.058-.126 0-.149-.341-.142-.87-.276-1.102-.33.778-1.168 1.278-2.57 1.278-4.077 0-.408-.105-.807-.194-1.195-.02-.088-.062-.088-.066 0-.09 1.76-.628 3.387-1.584 4.742zM8.935 9.12c.596.83.152 1.755-.327 2.438-.586.83.135 1.884.1 1.27-.049-.907 1.096-1.441 1.25-2.515a2.175 2.175 0 00-.419-1.63l-.097-.134C8.373 7.173 7.638 5.713 7.137 3.993c-.017-.059-.1-.08-.124 0-.066.244-.097.68.062 1.276.503 1.856 1.857 3.847 1.86 3.852zm-1.594.281c.228.446.485.874.772 1.282a.754.754 0 00.265-.977c-.029-.042-.055-.085-.083-.126a12.366 12.366 0 01-1.792-4.532c-.006-.038-.052-.04-.07-.004-.085.18-.081.517-.058 1.01.024.565.377 2.197.966 3.347zm-.231 2.535c-.232.054-.758.188-1.103.33-.056.023-.068.122.003.15.386.153 1.271.25 1.558.137.42-.164.327-.853.11-1.147-.955-1.355-1.496-2.982-1.585-4.743-.003-.087-.044-.087-.065 0-.09.39-.194.788-.194 1.196 0 1.508.5 2.91 1.276 4.077zm4.92 7.223l.023-.191a2.032 2.032 0 00-.49-1.633c-.619-.707-1.652-.763-2.062-1.213-.408-.45-.248-1.584-.874-2.235a2.238 2.238 0 00-1.57-.688l-.171-.007c-1.781-.02-3.417-.353-5.11-1.034-.059-.023-.13.029-.081.097.154.206.482.503 1.06.747 1.805.764 4.258.943 4.265.943 1.044.052 1.501.974 1.74 1.776.082.272.203.529.345.692.137.167.368.36.638.491.764.373 1.687.952 1.552 1.967 0 .005-.331 2.401.115 4.274.144.601.357.97.54 1.154.058.058.123 0 .11-.06-.382-1.75-.328-3.363-.03-5.08zm-1.61-.39l.01-.15a.755.755 0 00-.692-.735h-.016c-.06.495-.086.994-.074 1.495.025 1.294.522 2.897.773 3.407.22.445.38.743.543.86.033.024.072 0 .06-.036a12.149 12.149 0 01-.603-4.84zm-1.44-1.314c.021-.146-.006-.34-.079-.515a.625.625 0 00-.237-.34 1.137 1.137 0 00-.62-.246c-1.69-.096-3.335-.687-4.799-1.714-.072-.051-.1-.018-.042.052.255.313.507.644.833.898.99.771 2.14 1.233 3.312 1.44.251.045.506.077.76.099.057 0 .095 0 .104.016.01.015.011.06-.003.112-.022.248-.035.5-.035.751 0 1.165.262 2.353.862 3.445.197.36.485.661.754.961.061.068.097.047.06-.03-.774-1.594-1.076-3.282-.87-4.929zm-1.234-1.895a.756.756 0 00-.612-.813 12.841 12.841 0 01-4.919-1.433c-.034-.02-.065.016-.048.051.092.18.36.385.77.676.468.334 1.996 1.072 3.293 1.328.5.1 1.007.164 1.516.191zM12.247 4.73c-.387.442-.455 1.603-.5 2.125-.389-.347-.957-.853-1.486-.868-.064-.002-.147.012-.071.093.258.279.864.926 1.15 1.237a.607.607 0 00.42.208c.077.004.125-.001.163-.007a.333.333 0 00.12-.043.627.627 0 00.314-.558V4.801c.002-.12-.067-.12-.11-.072zm.488.072c0 .47.003 1.678 0 2.115a.623.623 0 00.315.558.33.33 0 00.119.043.7.7 0 00.15.008.616.616 0 00.433-.209c.286-.31.892-.958 1.15-1.237.076-.081-.004-.095-.07-.093-.53.015-1.098.52-1.484.868-.048-.522-.127-1.683-.513-2.125-.045-.049-.1-.048-.1.072z"/></g></svg>